<svg width="85" height="50" viewBox="0 0 85 50" fill="none" xmlns="http://www.w3.org/2000/svg">
<path d="M24.1333 18.1819C24.1333 19.2074 24.2447 20.0388 24.4398 20.6486C24.6628 21.2583 24.9415 21.9235 25.3317 22.6441C25.471 22.8658 25.5267 23.0876 25.5267 23.2816C25.5267 23.5587 25.3595 23.8359 24.9972 24.1131L23.2414 25.2771C22.9906 25.4434 22.7398 25.5266 22.5168 25.5266C22.2381 25.5266 21.9594 25.388 21.6807 25.1385C21.2905 24.7228 20.9561 24.2794 20.6774 23.8359C20.3987 23.3647 20.12 22.8381 19.8134 22.2007C17.6396 24.7505 14.9084 26.0254 11.6197 26.0254C9.27866 26.0254 7.41138 25.3603 6.04576 24.0299C4.68014 22.6995 3.9834 20.9257 3.9834 18.7085C3.9834 16.3526 4.81949 14.4402 6.51955 12.999C8.21961 11.5578 10.4771 10.8372 13.3476 10.8372C14.2952 10.8372 15.2707 10.9203 16.3018 11.0589C17.333 11.1975 18.3921 11.4192 19.5069 11.6687V9.6454C19.5069 7.53899 19.061 6.07005 18.197 5.21086C17.3052 4.35167 15.8002 3.93593 13.6542 3.93593C12.6788 3.93593 11.6755 4.0468 10.6443 4.29624C9.6131 4.54568 8.60978 4.85056 7.63434 5.23858C7.18842 5.43259 6.85399 5.54345 6.6589 5.59888C6.46381 5.65432 6.32446 5.68203 6.21298 5.68203C5.8228 5.68203 5.62772 5.40487 5.62772 4.82284V3.46477C5.62772 3.02131 5.68346 2.68872 5.8228 2.49471C5.96215 2.3007 6.21298 2.10669 6.60316 1.91268C7.5786 1.41379 8.74913 0.998057 10.1148 0.665467C11.4804 0.305162 12.9296 0.138867 14.4624 0.138867C17.7789 0.138867 20.2036 0.887194 21.7643 2.38385C23.2972 3.8805 24.0775 6.1532 24.0775 9.20194V18.1819H24.1333ZM12.8181 22.3947C13.7378 22.3947 14.6854 22.2284 15.6887 21.8958C16.692 21.5632 17.5839 20.9535 18.3363 20.122C18.7823 19.5954 19.1167 19.0133 19.2839 18.3482C19.4511 17.683 19.5626 16.8792 19.5626 15.9369V14.7728C18.7544 14.5788 17.8904 14.4125 16.9986 14.3017C16.1068 14.1908 15.2428 14.1354 14.3788 14.1354C12.5116 14.1354 11.1459 14.4957 10.2262 15.244C9.30653 15.9923 8.86061 17.0455 8.86061 18.4313C8.86061 19.734 9.19505 20.704 9.89179 21.3692C10.5607 22.0621 11.5361 22.3947 12.8181 22.3947V22.3947ZM35.1976 25.388C34.6959 25.388 34.3615 25.3048 34.1385 25.1108C33.9156 24.9445 33.7205 24.5565 33.5532 24.0299L27.0038 2.60558C26.8366 2.05126 26.753 1.69095 26.753 1.49694C26.753 1.05349 26.976 0.804047 27.4219 0.804047H30.1531C30.6827 0.804047 31.045 0.887194 31.2401 1.0812C31.463 1.2475 31.6302 1.63552 31.7974 2.16212L36.4796 20.51L40.8273 2.16212C40.9666 1.60781 41.1338 1.2475 41.3568 1.0812C41.5797 0.91491 41.9699 0.804047 42.4716 0.804047H44.7012C45.2307 0.804047 45.593 0.887194 45.8159 1.0812C46.0389 1.2475 46.234 1.63552 46.3455 2.16212L50.7489 20.7317L55.5704 2.16212C55.7376 1.60781 55.9327 1.2475 56.1278 1.0812C56.3507 0.91491 56.713 0.804047 57.2147 0.804047H59.8066C60.2525 0.804047 60.5033 1.02577 60.5033 1.49694C60.5033 1.63552 60.4755 1.7741 60.4476 1.9404C60.4197 2.10669 60.364 2.32842 60.2525 2.63329L53.5359 24.0576C53.3687 24.6119 53.1736 24.9722 52.9506 25.1385C52.7277 25.3048 52.3653 25.4157 51.8916 25.4157H49.4948C48.9652 25.4157 48.6029 25.3326 48.38 25.1385C48.157 24.9445 47.9619 24.5842 47.8504 24.0299L43.5306 6.1532L39.2387 24.0022C39.0993 24.5565 38.9321 24.9168 38.7092 25.1108C38.4862 25.3048 38.096 25.388 37.5944 25.388H35.1976ZM71.0102 26.1363C69.561 26.1363 68.1118 25.97 66.7183 25.6374C65.3248 25.3048 64.2379 24.9445 63.5133 24.5288C63.0673 24.2794 62.7608 24.0022 62.6493 23.7528C62.5378 23.5033 62.4821 23.2261 62.4821 22.9767V21.5632C62.4821 20.9812 62.705 20.704 63.1231 20.704C63.2903 20.704 63.4575 20.7317 63.6247 20.7872C63.792 20.8426 64.0428 20.9535 64.3215 21.0643C65.2691 21.4801 66.3002 21.8126 67.3872 22.0344C68.502 22.2561 69.5889 22.367 70.7037 22.367C72.4595 22.367 73.8251 22.0621 74.7727 21.4523C75.7202 20.8426 76.2219 19.9557 76.2219 18.8193C76.2219 18.0433 75.9711 17.4058 75.4694 16.8792C74.9677 16.3526 74.0202 15.8815 72.6546 15.438L68.6134 14.1908C66.5789 13.5533 65.074 12.611 64.1543 11.3638C63.2346 10.1443 62.7608 8.7862 62.7608 7.34498C62.7608 6.18092 63.0116 5.15543 63.5133 4.26852C64.0149 3.38162 64.6838 2.60558 65.5199 1.99583C66.356 1.35836 67.3036 0.887194 68.4183 0.554604C69.5331 0.222014 70.7037 0.0834351 71.9299 0.0834351C72.5431 0.0834351 73.1841 0.111151 73.7972 0.194298C74.4382 0.277446 75.0235 0.388309 75.6088 0.499172C76.1661 0.637752 76.6957 0.776331 77.1973 0.942626C77.699 1.10892 78.0892 1.27522 78.3679 1.44151C78.758 1.66324 79.0367 1.88496 79.204 2.13441C79.3712 2.35613 79.4548 2.66101 79.4548 3.04903V4.35167C79.4548 4.9337 79.2318 5.23858 78.8138 5.23858C78.5908 5.23858 78.2285 5.12772 77.7547 4.90599C76.1661 4.18538 74.3825 3.82507 72.4037 3.82507C70.8151 3.82507 69.561 4.07451 68.697 4.60111C67.8331 5.12772 67.3872 5.93147 67.3872 7.06782C67.3872 7.84387 67.6659 8.50905 68.2233 9.03565C68.7807 9.56225 69.8118 10.0888 71.2889 10.56L75.2464 11.8072C77.2531 12.4447 78.7023 13.3316 79.5663 14.4679C80.4302 15.6043 80.8483 16.9069 80.8483 18.3482C80.8483 19.5399 80.5974 20.6209 80.1237 21.5632C79.622 22.5055 78.9531 23.337 78.0892 24.0022C77.2252 24.6951 76.194 25.194 74.9956 25.5543C73.7415 25.9423 72.4316 26.1363 71.0102 26.1363V26.1363Z" fill="white"/>
<path fill-rule="evenodd" clip-rule="evenodd" d="M76.2775 39.6062C67.1083 46.3412 53.7866 49.9165 42.3321 49.9165C26.2791 49.9165 11.8147 44.0131 0.889785 34.2017C0.025822 33.4256 0.806175 32.3724 1.83736 32.9822C13.6541 39.8003 28.23 43.9299 43.3076 43.9299C53.48 43.9299 64.6558 41.8235 74.9398 37.4998C76.4726 36.8069 77.7825 38.4976 76.2775 39.6062V39.6062Z" fill="#FF9900"/>
<path fill-rule="evenodd" clip-rule="evenodd" d="M80.0956 35.2826C78.9251 33.7859 72.3479 34.5619 69.3658 34.9223C68.474 35.0331 68.3346 34.2571 69.1429 33.675C74.3823 30.0166 82.994 31.0698 83.9973 32.2893C85.0007 33.5365 83.7187 42.1006 78.8136 46.2026C78.0611 46.84 77.3365 46.5075 77.671 45.676C78.7857 42.9321 81.2661 36.7515 80.0956 35.2826V35.2826Z" fill="#FF9900"/>
</svg>
