<svg width="80" height="78" viewBox="0 0 80 78" fill="none" xmlns="http://www.w3.org/2000/svg">
<path d="M40.1208 78C61.66 78 79.1208 60.5391 79.1208 39C79.1208 17.4609 61.66 0 40.1208 0C18.5817 0 1.12085 17.4609 1.12085 39C1.12085 60.5391 18.5817 78 40.1208 78Z" fill="#FF6723"/>
<path d="M0.961247 36.4644C0.906788 37.3026 0.87915 38.1481 0.87915 39C0.87915 39.166 0.880194 39.3318 0.882309 39.4975C1.69645 39.1866 2.68121 38.7846 3.78175 38.2849C6.87511 36.8798 10.9194 34.6838 14.6619 31.5279C17.3952 29.2232 19.9905 26.3868 21.9277 22.9523C24.1807 24.1137 26.3342 25.3182 28.3915 26.5559C22.9369 32.9179 19.2815 39.427 16.8437 45.447C13.9645 52.5569 12.7936 58.9582 12.3428 63.5898C12.2476 64.5675 12.1844 65.467 12.1441 66.2782C13.022 67.1641 13.9422 68.0087 14.9017 68.8091C14.899 67.6026 14.9495 65.9167 15.15 63.8563C15.5805 59.4343 16.701 53.2999 19.4623 46.4813C21.8272 40.6413 25.4029 34.2799 30.8065 28.0513C33.7717 29.9408 36.5253 31.8958 39.0793 33.8837C37.2761 35.868 35.7562 38.0846 34.5249 40.4527C28.4482 52.1419 29.303 67.8098 38.0934 77.9365C38.8441 77.9785 39.6008 78 40.3622 78C40.9139 78 41.463 77.9888 42.0089 77.9665C32.4729 69.001 30.9844 53.3612 37.0338 41.7255C38.1822 39.5164 39.5977 37.4639 41.274 35.639C46.966 40.3171 51.5915 45.1202 55.3088 49.6294C60.2634 55.6393 63.6056 61.1294 65.7058 65.1071C66.2228 66.0866 66.6644 66.9738 67.0361 67.7544C67.7697 67.0903 68.4776 66.3991 69.1584 65.6824C68.8727 65.1035 68.556 64.4812 68.2062 63.819C66.0319 59.7006 62.5881 54.0478 57.4956 47.8702C53.7174 43.2872 49.0324 38.4164 43.2874 33.6703C45.924 31.3585 49.0728 29.5517 52.717 28.4488C59.5899 26.369 68.3842 26.7467 79.0576 31.2108C78.8252 30.0779 78.5432 28.9628 78.2135 27.868C67.9163 23.9385 59.0905 23.6067 51.891 25.7854C47.672 27.0621 44.0604 29.1865 41.0746 31.8908C38.489 29.8662 35.7038 27.8744 32.7067 25.9481C39.4868 18.7413 48.8381 11.8149 61.7336 6.20148C60.7662 5.58517 59.7698 5.00947 58.7467 4.47687C46.2125 10.199 37.0186 17.1727 30.2839 24.4338C28.0271 23.0626 25.6573 21.7305 23.1694 20.4499C23.3879 19.9428 23.5921 19.4244 23.7802 18.8943C25.3564 14.4541 25.7947 9.27652 24.4311 3.30495C23.543 3.69225 22.672 4.11091 21.8197 4.55952C22.9008 9.77803 22.4529 14.2142 21.1187 17.9725C20.9722 18.3854 20.8146 18.791 20.6468 19.1892C17.1969 17.5161 13.5313 15.9436 9.63884 14.5023C9.02307 15.2548 8.43505 16.0305 7.87637 16.8276C11.9716 18.3136 15.8113 19.9474 19.4093 21.6926C17.6767 24.7321 15.3472 27.2874 12.8309 29.4093C9.34663 32.3471 5.54715 34.4169 2.60346 35.7538C2.01756 36.0201 1.46697 36.2566 0.961247 36.4644Z" fill="#212121"/>
</svg>
