<svg width="92" height="64" viewBox="0 0 92 64" fill="none" xmlns="http://www.w3.org/2000/svg">
<g clip-path="url(#clip0_478_2417)">
<path d="M0.5 0.5H91.5V63.5007H0.5V0.5Z" fill="white"/>
<path d="M51.6875 0.499441H40.3125V26.0931H0.5V37.9056H40.3125V63.4992H51.6875V37.9056H91.5V26.0931H51.6875V0.499441Z" fill="#FF473E"/>
<path d="M70.4892 42.9558L91.5001 55.0777V42.9558H70.4892ZM55.8914 42.9558L91.5001 63.4993V57.6901L65.9609 42.9558H55.8914ZM82.0151 63.4993L55.8914 48.4265V63.4993H82.0151Z" fill="#0B67B2"/>
<path d="M55.8914 42.9558L91.5001 63.4993V57.6901L65.9609 42.9558H55.8914Z" fill="white"/>
<path d="M55.8914 42.9558L91.5001 63.4993V57.6901L65.9609 42.9558H55.8914Z" fill="#FF473E"/>
<path d="M16.5567 42.9555L0.5 52.219V42.9555H16.5567ZM36.1087 45.5679V63.4991H5.03063L36.1087 45.5679Z" fill="#0B67B2"/>
<path d="M26.0392 42.9558L0.5 57.6901V63.4993L36.1087 42.9558H26.0392Z" fill="#FF473E"/>
<path d="M21.5109 21.0429L0.5 8.92102V21.0429H21.5109ZM36.1087 21.0429L0.5 0.499441V6.30861L26.0392 21.0429H36.1087ZM9.98497 0.499441L36.1087 15.5722V0.499441H9.98497Z" fill="#0B67B2"/>
<path d="M36.1087 21.0429L0.5 0.499441V6.30861L26.0392 21.0429H36.1087Z" fill="white"/>
<path d="M36.1087 21.0429L0.5 0.499441V6.30861L26.0392 21.0429H36.1087Z" fill="#FF473E"/>
<path d="M75.4434 21.0433L91.5001 11.7797V21.0433H75.4434ZM55.8914 18.4308V0.499632H86.9695L55.8914 18.4308Z" fill="#0B67B2"/>
<path d="M65.9609 21.0429L91.5001 6.30862V0.499447L55.8914 21.0429H65.9609Z" fill="#FF473E"/>
</g>
<defs>
<clipPath id="clip0_478_2417">
<rect x="0.5" y="0.5" width="91" height="63" rx="2" fill="white"/>
</clipPath>
</defs>
</svg>
