<svg width="21" height="20" viewBox="0 0 21 20" fill="none" xmlns="http://www.w3.org/2000/svg">
<mask id="mask0_780_418" style="mask-type:alpha" maskUnits="userSpaceOnUse" x="0" y="0" width="21" height="20">
<rect x="0.238037" width="20" height="20" fill="#D9D9D9"/>
</mask>
<g mask="url(#mask0_780_418)">
<path d="M5.65462 16.6667C4.39073 16.6667 3.31087 16.2292 2.41504 15.3542C1.51921 14.4792 1.07129 13.4097 1.07129 12.1458C1.07129 11.0625 1.39768 10.0972 2.05046 9.24999C2.70323 8.40277 3.5574 7.8611 4.61296 7.62499C4.84907 6.62499 5.43934 5.6736 6.38379 4.77082C7.32823 3.86805 8.33518 3.41666 9.40462 3.41666C9.86296 3.41666 10.2553 3.57985 10.5817 3.90624C10.9081 4.23263 11.0713 4.62499 11.0713 5.08332V10.125L12.4046 8.83332L13.5713 9.99999L10.238 13.3333L6.90462 9.99999L8.07129 8.83332L9.40462 10.125V5.08332C8.34907 5.27777 7.52962 5.78818 6.94629 6.61457C6.36296 7.44096 6.07129 8.29166 6.07129 9.16666H5.65462C4.84907 9.16666 4.16157 9.45138 3.59212 10.0208C3.02268 10.5903 2.73796 11.2778 2.73796 12.0833C2.73796 12.8889 3.02268 13.5764 3.59212 14.1458C4.16157 14.7153 4.84907 15 5.65462 15H15.6546C16.238 15 16.731 14.7986 17.1338 14.3958C17.5366 13.993 17.738 13.5 17.738 12.9167C17.738 12.3333 17.5366 11.8403 17.1338 11.4375C16.731 11.0347 16.238 10.8333 15.6546 10.8333H14.4046V9.16666C14.4046 8.49999 14.2518 7.87846 13.9463 7.30207C13.6407 6.72568 13.238 6.2361 12.738 5.83332V3.89582C13.7657 4.38193 14.5782 5.10068 15.1755 6.05207C15.7727 7.00346 16.0713 8.04166 16.0713 9.16666C17.0296 9.27777 17.8248 9.69096 18.4567 10.4062C19.0887 11.1215 19.4046 11.9583 19.4046 12.9167C19.4046 13.9583 19.04 14.8437 18.3109 15.5729C17.5817 16.3021 16.6963 16.6667 15.6546 16.6667H5.65462Z" fill="white"/>
</g>
</svg>
