<svg width="75" height="84" viewBox="0 0 75 84" fill="none" xmlns="http://www.w3.org/2000/svg">
<path d="M74.1935 0.333313L67.4621 75.3246L37.2046 83.6666L7.03035 75.3363L0.306152 0.333313H74.1935Z" fill="#264DE4"/>
<path d="M61.6993 70.5494L67.4517 6.46594H37.2498V77.2904L61.6993 70.5494Z" fill="#2965F1"/>
<path d="M15.7212 34.2835L16.5502 43.4822H37.2498V34.2835H15.7212Z" fill="#EBEBEB"/>
<path d="M37.2498 15.6647H37.2179H14.0554L14.8963 24.8637H37.2498V15.6647Z" fill="#EBEBEB"/>
<path d="M37.2499 67.7442V58.1736L37.2093 58.1843L26.9076 55.418L26.2491 48.0815H21.2433H16.9636L18.2595 62.525L37.2073 67.756L37.2499 67.7442Z" fill="#EBEBEB"/>
<path d="M48.608 43.4821L47.5343 55.4122L37.2178 58.1814V67.7516L56.1806 62.5251L56.3197 60.971L58.4934 36.7535L58.7191 34.2834L60.389 15.6647H37.2178V24.8637H50.2518L49.4102 34.2834H37.2178V43.4821H48.608Z" fill="#1E2235"/>
</svg>
