<svg width="85" height="60" viewBox="0 0 85 60" fill="none" xmlns="http://www.w3.org/2000/svg">
<path d="M83.4884 22.6744C83.2612 22.4949 81.1396 20.9018 76.6654 20.9018C75.484 20.907 74.305 21.0077 73.14 21.2032C72.2741 15.3006 67.3669 12.4227 67.1469 12.2936L65.9455 11.6046L65.1553 12.7386C64.1657 14.2618 63.4433 15.941 63.0193 17.7047C62.2182 21.0741 62.7053 24.2388 64.4264 26.9444C62.3481 28.0962 59.0142 28.3797 58.3395 28.4048H3.1416C1.69985 28.4068 0.529932 29.5654 0.522075 30.9991C0.457692 35.808 1.27696 40.5883 2.93954 45.1044C4.841 50.0634 7.66986 53.7163 11.3502 55.9517C15.4744 58.4635 22.1748 59.8988 29.7699 59.8988C33.2011 59.9095 36.6258 59.6007 39.9992 58.9766C44.6885 58.1204 49.2008 56.4904 53.3494 54.154C56.7678 52.1853 59.8443 49.6809 62.4601 46.7371C66.8332 41.814 69.4384 36.3311 71.3759 31.4584H72.148C76.936 31.4584 79.8804 29.553 81.5041 27.9563C82.5831 26.9379 83.4254 25.6973 83.9721 24.3214L84.3148 23.3239L83.4884 22.6744Z" fill="#2496ED"/>
<path d="M8.25788 26.7973H15.6546C16.0114 26.7973 16.3005 26.5097 16.3005 26.1551V19.6028C16.3025 19.2481 16.0149 18.959 15.6583 18.957C15.6571 18.957 15.6558 18.957 15.6546 18.957H8.25788C7.90114 18.957 7.61206 19.2446 7.61206 19.5992V19.6028V26.155C7.61206 26.5097 7.90114 26.7973 8.25788 26.7973Z" fill="#2496ED"/>
<path d="M18.4511 26.7973H25.8478C26.2046 26.7973 26.4937 26.5097 26.4937 26.1551V19.6028C26.4957 19.2481 26.2081 18.959 25.8514 18.957C25.8502 18.957 25.8489 18.957 25.8477 18.957H18.451C18.0922 18.957 17.8015 19.2461 17.8015 19.6028V26.155C17.8036 26.5103 18.0938 26.7973 18.4511 26.7973Z" fill="#2496ED"/>
<path d="M28.7993 26.7973H36.196C36.5528 26.7973 36.8418 26.5097 36.8418 26.1551V19.6028C36.8438 19.2481 36.5563 18.959 36.1995 18.957C36.1984 18.957 36.1971 18.957 36.1959 18.957H28.7991C28.4424 18.957 28.1533 19.2446 28.1533 19.5992V19.6028V26.155C28.1534 26.5097 28.4426 26.7973 28.7993 26.7973Z" fill="#2496ED"/>
<path d="M39.025 26.7973H46.4217C46.7791 26.7973 47.0692 26.5104 47.0712 26.1551V19.6028C47.0712 19.2461 46.7805 18.957 46.4217 18.957H39.025C38.6682 18.957 38.3792 19.2446 38.3792 19.5992V19.6028V26.155C38.3792 26.5097 38.6683 26.7973 39.025 26.7973Z" fill="#2496ED"/>
<path d="M18.4512 17.3711H25.848C26.2052 17.3691 26.4938 17.0804 26.4938 16.7252V10.1731C26.4938 9.8183 26.2046 9.53082 25.848 9.53082H18.4512C18.094 9.53082 17.8038 9.81772 17.8018 10.1731V16.7252C17.8038 17.0811 18.0933 17.3691 18.4512 17.3711Z" fill="#2496ED"/>
<path d="M28.7991 17.3711H36.1959C36.5531 17.3691 36.8417 17.0804 36.8417 16.7252V10.1731C36.8417 9.8183 36.5525 9.53082 36.1959 9.53082H28.7991C28.4424 9.53082 28.1533 9.81842 28.1533 10.1731V16.7252C28.1533 17.0804 28.4419 17.3691 28.7991 17.3711Z" fill="#2496ED"/>
<path d="M39.025 17.3711H46.4217C46.7796 17.3691 47.0692 17.0811 47.0712 16.7252V10.1731C47.0692 9.81772 46.7791 9.53082 46.4217 9.53082H39.025C38.6682 9.53082 38.3792 9.81842 38.3792 10.1731V16.7252C38.3792 17.0804 38.6678 17.3691 39.025 17.3711Z" fill="#2496ED"/>
<path d="M39.025 7.94124H46.4217C46.7791 7.94124 47.0692 7.65422 47.0712 7.29899V0.743145C47.0692 0.387789 46.7791 0.100891 46.4217 0.100891H39.025C38.6682 0.100891 38.3792 0.388372 38.3792 0.743145V7.29887C38.3792 7.65364 38.6683 7.94124 39.025 7.94124Z" fill="#2496ED"/>
<path d="M49.3406 26.7973H56.7374C57.0947 26.7973 57.3849 26.5104 57.3869 26.1551V19.6028C57.3869 19.2461 57.0961 18.957 56.7374 18.957H49.3406C48.984 18.957 48.6948 19.2446 48.6948 19.5992V19.6028V26.155C48.6948 26.5097 48.984 26.7973 49.3406 26.7973Z" fill="#2496ED"/>
</svg>
