<svg width="17" height="14" viewBox="0 0 17 14" fill="none" xmlns="http://www.w3.org/2000/svg">
<path d="M8.5 6.875L0 2.5752V1.5625C0 1.26367 0.105143 1.01188 0.31543 0.807129C0.525716 0.602376 0.77474 0.5 1.0625 0.5H15.9375C16.2253 0.5 16.4743 0.602376 16.6846 0.807129C16.8949 1.01188 17 1.26367 17 1.5625V2.5752L8.5 6.875ZM7.96875 7.9375H9.03125L17 3.80371V12.1875C17 12.4753 16.8949 12.7243 16.6846 12.9346C16.4743 13.1449 16.2253 13.25 15.9375 13.25H1.0625C0.77474 13.25 0.525716 13.1449 0.31543 12.9346C0.105143 12.7243 0 12.4753 0 12.1875V3.80371L7.96875 7.9375Z" fill="url(#paint0_linear_780_233)"/>
<defs>
<linearGradient id="paint0_linear_780_233" x1="15.7561" y1="-0.307728" x2="2.42783" y2="13.1686" gradientUnits="userSpaceOnUse">
<stop stop-color="#0057FF"/>
<stop offset="1" stop-color="#00F0FF"/>
</linearGradient>
</defs>
</svg>
