<svg width="62" height="84" viewBox="0 0 62 84" fill="none" xmlns="http://www.w3.org/2000/svg">
<path d="M40.5575 30.433L32.1772 38.1927L24.3982 22.5821L28.4168 13.6062C29.4325 11.8158 31.0936 11.7921 32.1093 13.6062L40.5575 30.433Z" fill="#FFA000"/>
<path d="M32.1807 38.1894L0.833496 67.1844L24.4017 22.5821L32.1807 38.1894Z" fill="#F57F17"/>
<path d="M49.7464 18.5654C51.2478 17.1432 52.7934 17.6229 53.1841 19.6431L61.3334 66.7926L34.3038 82.9302C33.356 83.4572 30.8423 83.6633 30.8423 83.6633C30.8423 83.6633 28.5561 83.3863 27.6797 82.9066L0.833496 67.1844L49.7464 18.5654Z" fill="#FFCA28"/>
<path d="M24.4016 22.5821L0.833496 67.1844L11.3369 1.99201C11.731 -0.0281463 12.8825 -0.234216 13.922 1.55623L24.4016 22.5821Z" fill="#FFA000"/>
</svg>
