<svg width="114" height="118" viewBox="0 0 114 118" fill="none" xmlns="http://www.w3.org/2000/svg">
<path d="M64.3019 50.2512L58.0068 56.3051L52.1635 44.1262L55.1821 37.1235C55.9451 35.7266 57.1928 35.7082 57.9558 37.1235L64.3019 50.2512Z" fill="#FFA000"/>
<path d="M58.0095 56.3025L34.4624 78.9235L52.1661 44.1262L58.0095 56.3025Z" fill="#F57F17"/>
<path d="M71.2042 40.9925C72.3321 39.8829 73.4931 40.2572 73.7865 41.8332L79.908 78.6179L59.6042 91.208C58.8923 91.6191 57.0041 91.7799 57.0041 91.7799C57.0041 91.7799 55.2868 91.5638 54.6284 91.1895L34.4624 78.9236L71.2042 40.9925Z" fill="#FFCA28"/>
<path d="M52.166 44.1262L34.4624 78.9235L42.3522 28.0624C42.6482 26.4863 43.5133 26.3256 44.2941 27.7224L52.166 44.1262Z" fill="#FFA000"/>
</svg>
