<svg width="76" height="84" viewBox="0 0 76 84" fill="none" xmlns="http://www.w3.org/2000/svg">
<path fill-rule="evenodd" clip-rule="evenodd" d="M45.0665 9.87448L62.2739 19.7549C62.7706 19.2321 63.3407 18.7835 63.9665 18.4228C67.535 16.3825 72.0869 17.5939 74.1598 21.143C76.2114 24.6922 74.9933 29.2186 71.4245 31.28C70.8034 31.6357 70.1341 31.9008 69.4371 32.067V51.835C70.1265 52.0015 70.7885 52.2647 71.4032 52.6167C74.9933 54.6782 76.2114 59.2049 74.1386 62.754C72.0869 66.3029 67.5138 67.5143 63.945 65.4742C63.2536 65.0798 62.6307 64.5769 62.1005 63.9851L44.9978 73.8047C45.2483 74.5589 45.3755 75.3482 45.3746 76.1424C45.3746 80.2228 42.0411 83.5595 37.9166 83.5595C33.7921 83.5595 30.4586 80.2439 30.4586 76.1424C30.4586 75.4133 30.5639 74.7091 30.7603 74.044L13.5576 64.1665C13.0663 64.6789 12.5042 65.1192 11.8883 65.4742C8.29819 67.5143 3.7463 66.3029 1.69466 62.754C-0.356691 59.2049 0.861433 54.6782 4.42998 52.6167C5.04474 52.2646 5.70674 52.0013 6.39609 51.8347V32.067C5.69913 31.9008 5.02984 31.6357 4.40874 31.28C0.839904 29.24 -0.37822 24.6922 1.67342 21.143C3.72506 17.5939 8.2979 16.3825 11.8667 18.4228C12.4891 18.7815 13.0563 19.2273 13.5512 19.7465L30.7635 9.86348C30.5606 9.17862 30.4579 8.46828 30.4586 7.75432C30.4586 3.65317 33.7921 0.337524 37.9166 0.337524C42.0411 0.337524 45.3746 3.65288 45.3746 7.75432C45.3746 8.49151 45.267 9.20296 45.0665 9.87448ZM43.2738 12.9187L60.5222 22.8223C60.2475 23.777 60.1687 24.777 60.2905 25.7627C60.4123 26.7483 60.7322 27.6996 61.2312 28.5598C62.2811 30.3762 63.9915 31.5803 65.8898 32.0496V51.8422C65.793 51.8656 65.6967 51.8914 65.6009 51.9186L43.0733 13.1169C43.1414 13.0521 43.2083 12.9861 43.2738 12.919V12.9187ZM32.7645 13.1213L10.2372 51.9224C10.1398 51.8943 10.0419 51.8683 9.9434 51.8442V32.0496C11.8417 31.5803 13.5521 30.3762 14.6021 28.5598C15.102 27.6979 15.4222 26.7447 15.5435 25.757C15.6648 24.7693 15.5848 23.7675 15.3081 22.8113L32.5516 12.9106C32.6211 12.9821 32.6921 13.0524 32.7645 13.121V13.1213ZM40.0005 14.8789L62.5226 53.6713C62.0067 54.1609 61.5645 54.7218 61.2096 55.3369C60.8557 55.9483 60.591 56.6067 60.4235 57.2922H15.4103C15.2426 56.6066 14.9777 55.9483 14.6236 55.3369C14.2675 54.7261 13.8261 54.1685 13.3127 53.6809L35.8391 14.8806C36.5144 15.074 37.2138 15.1718 37.9166 15.1711C38.6402 15.1711 39.3393 15.0693 40.0005 14.8789ZM43.4321 71.1458L60.5684 61.3065C60.5171 61.1459 60.4712 60.9836 60.4308 60.8199H15.4007C15.3768 60.9162 15.3509 61.0117 15.3233 61.1069L32.5434 70.9945C33.2388 70.2754 34.0733 69.7037 34.9968 69.3138C35.9202 68.9239 36.9134 68.7238 37.9166 68.7256C38.9549 68.7238 39.9821 68.9383 40.932 69.3551C41.8819 69.7719 42.7335 70.3819 43.4321 71.1458Z" fill="#E535AB"/>
</svg>
