<svg width="85" height="84" viewBox="0 0 85 84" fill="none" xmlns="http://www.w3.org/2000/svg">
<path d="M84.4815 0.333313H0.685181V83.6666H84.4815V0.333313Z" fill="#F7DF1E"/>
<path d="M56.975 65.4378C58.6629 68.1786 60.8589 70.1931 64.7428 70.1931C68.0056 70.1931 70.0898 68.5714 70.0898 66.3307C70.0898 63.6455 67.9484 62.6944 64.3571 61.1323L62.3885 60.2923C56.7063 57.8849 52.9315 54.869 52.9315 48.4934C52.9315 42.6204 57.4313 38.1495 64.4635 38.1495C69.47 38.1495 73.0692 39.8823 75.6629 44.4193L69.5312 48.3347C68.1811 45.9273 66.7247 44.9788 64.4635 44.9788C62.1571 44.9788 60.6953 46.4339 60.6953 48.3347C60.6953 50.6839 62.1584 51.6349 65.5369 53.0899L67.5054 53.9286C74.1958 56.7817 77.9733 59.6905 77.9733 66.2302C77.9733 73.2804 72.4042 77.1429 64.925 77.1429C57.6121 77.1429 52.8876 73.6773 50.5759 69.1349L56.975 65.4378ZM29.1587 66.1164C30.3956 68.2989 31.5209 70.1442 34.2263 70.1442C36.8134 70.1442 38.4454 69.1376 38.4454 65.2235V38.5966H46.3196V65.3294C46.3196 73.4378 41.5392 77.1283 34.5615 77.1283C28.2568 77.1283 24.6057 73.8836 22.7489 69.9755L29.1587 66.1164Z" fill="black"/>
</svg>
