<svg width="39" height="84" viewBox="0 0 39 84" fill="none" xmlns="http://www.w3.org/2000/svg">
<path d="M18.9876 0.560913L21.2238 4.73768C21.7265 5.50846 22.2712 6.1907 22.9127 6.82607C24.7935 8.67314 26.5466 10.6445 28.1601 12.7267C31.949 17.6742 34.5046 23.1686 36.3296 29.1109C37.4242 32.7408 38.0185 36.4645 38.063 40.2298C38.2463 51.4868 34.3658 61.1527 26.5419 69.186C25.2692 70.4599 23.8944 71.6286 22.4309 72.6805C21.6558 72.6805 21.2893 72.0894 20.9698 71.5452C20.3881 70.536 20.0009 69.4277 19.8282 68.2772C19.5532 66.9153 19.3726 65.5535 19.4616 64.1473V63.5119C19.3987 63.3765 18.7153 0.881202 18.9876 0.560913V0.560913Z" fill="#599636"/>
<path d="M18.9878 0.422898C18.8961 0.240619 18.8045 0.37863 18.7128 0.467165C18.7574 1.37856 18.4379 2.191 17.9378 2.96698C17.3879 3.73776 16.66 4.32886 15.9294 4.96423C11.8708 8.45876 8.67635 12.6798 6.11813 17.4008C2.71415 23.7545 0.959791 30.5639 0.462286 37.7326C0.234482 40.3184 1.28448 49.4427 2.10405 52.0753C4.3402 59.0644 8.3569 64.9207 13.5597 70.0037C14.8375 71.2276 16.2044 72.3629 17.6183 73.454C18.0294 73.454 18.0739 73.0894 18.1682 72.8186C18.3484 72.2391 18.4858 71.6473 18.5793 71.0479L19.4958 64.2411L18.9878 0.422898Z" fill="#6CAC48"/>
<path d="M21.224 75.446C21.3157 74.4044 21.8184 73.5399 22.3657 72.6779C21.8158 72.4514 21.4073 72.0009 21.0879 71.4984C20.8124 71.0225 20.5844 70.521 20.4071 70.0011C19.7682 68.095 19.632 66.0951 19.4487 64.1474V62.9678C19.2209 63.1501 19.1738 64.6916 19.1738 64.9207C19.0405 66.9794 18.7658 69.0265 18.3516 71.0479C18.2154 71.8655 18.1238 72.6806 17.6184 73.4071C17.6184 73.4982 17.6184 73.5893 17.6629 73.7247C18.4851 76.1308 18.7103 78.5811 18.8491 81.0783V81.9897C18.8491 83.0782 18.8046 82.849 19.7132 83.2136C20.0798 83.349 20.4882 83.3959 20.8548 83.6667C21.1298 83.6667 21.1743 83.4401 21.1743 83.2578L21.0381 81.7606V77.5838C20.9936 76.8547 21.1298 76.1308 21.2214 75.4486L21.224 75.446Z" fill="#C2BFBF"/>
</svg>
