<svg width="85" height="52" viewBox="0 0 85 52" fill="none" xmlns="http://www.w3.org/2000/svg">
<path d="M20.6243 14.0329H36.429V15.2761H22.073V24.6332H35.5729V25.8764H22.073V36.1495H36.5936V37.3928H20.6243V14.0329ZM37.8449 14.0329H39.5241L46.9655 24.306L54.5715 14.0329L64.917 0.983704L47.9204 25.3857L56.6788 37.3928H54.9337L46.9655 26.4653L38.9644 37.3928H37.2522L46.0765 25.3857L37.8449 14.0329ZM57.3045 15.2761V14.0329H75.3153V15.2761H67.0178V37.3928H65.569V15.2761H57.3045Z" fill="white"/>
<path d="M0.851929 14.0329H2.66289L27.635 51.0163L17.3152 37.3928L2.36655 15.7996L2.3007 37.3928H0.851929V14.0329Z" fill="white"/>
<path d="M75.1694 35.7743C75.4689 35.7743 75.6873 35.5474 75.6873 35.254C75.6873 34.9607 75.4689 34.7337 75.1694 34.7337C74.8734 34.7337 74.6514 34.9607 74.6514 35.254C74.6514 35.5474 74.8734 35.7743 75.1694 35.7743ZM76.5929 34.4055C76.5929 35.2715 77.2237 35.8372 78.1434 35.8372C79.123 35.8372 79.715 35.254 79.715 34.2414V30.6761H78.9257V34.2379C78.9257 34.8001 78.6402 35.1004 78.1363 35.1004C77.6853 35.1004 77.3787 34.821 77.3682 34.4055H76.5929ZM80.7474 34.3601C80.8038 35.261 81.5614 35.8372 82.689 35.8372C83.8941 35.8372 84.6482 35.2331 84.6482 34.2693C84.6482 33.5115 84.2183 33.0925 83.1753 32.8516L82.615 32.7154C81.9525 32.5617 81.6847 32.3557 81.6847 31.996C81.6847 31.5421 82.1005 31.2452 82.7242 31.2452C83.3162 31.2452 83.725 31.5351 83.799 31.9995H84.5672C84.5214 31.151 83.7673 30.5538 82.7348 30.5538C81.6248 30.5538 80.8849 31.151 80.8849 32.0484C80.8849 32.7887 81.3042 33.2287 82.2239 33.4417L82.8793 33.5988C83.5523 33.756 83.8483 33.9864 83.8483 34.3706C83.8483 34.8175 83.3832 35.1423 82.7489 35.1423C82.0688 35.1423 81.5966 34.8385 81.5297 34.3601H80.7474Z" fill="white"/>
</svg>
