<svg width="77" height="84" viewBox="0 0 77 84" fill="none" xmlns="http://www.w3.org/2000/svg">
<path d="M35.4858 1.22236C37.5636 0.0396359 40.2699 0.0342936 42.3459 1.22236C52.7899 7.09118 63.2372 12.9508 73.6794 18.8232C75.6435 19.9234 76.9573 22.0971 76.9373 24.3477V59.6568C76.9519 62.0005 75.5083 64.2262 73.4362 65.3015C63.0265 71.138 52.6222 76.9815 42.2143 82.818C40.0935 84.0239 37.3329 83.931 35.2784 82.6263C32.1576 80.8271 29.0314 79.0368 25.9103 77.2395C25.2725 76.8613 24.5536 76.5604 24.1032 75.9454C24.5013 75.4118 25.2131 75.3453 25.7915 75.1123C27.0942 74.7004 28.2907 74.0391 29.4874 73.3975C29.7901 73.1915 30.1595 73.2704 30.4496 73.4547C33.1183 74.9764 35.7634 76.5423 38.441 78.0494C39.0123 78.3774 39.5906 77.942 40.0789 77.6713C50.294 71.9298 60.5217 66.21 70.735 60.4667C71.1134 60.2857 71.3226 59.8862 71.2919 59.4739C71.2991 47.8262 71.2937 36.1765 71.2955 24.5287C71.3388 24.061 71.0666 23.6309 70.6413 23.4395C60.2677 17.6298 49.8995 11.8111 39.5277 5.99986C39.348 5.87701 39.1351 5.81109 38.917 5.81077C38.699 5.81045 38.4859 5.87575 38.3058 5.99808C27.934 11.8111 17.5676 17.6351 7.1958 23.4446C6.77201 23.6363 6.48759 24.0592 6.53803 24.5287C6.53982 36.1765 6.53803 47.8262 6.53803 59.4757C6.52004 59.6769 6.56447 59.8787 6.66532 60.0539C6.76616 60.2292 6.9186 60.3695 7.10209 60.456C9.86985 62.0169 12.6412 63.5667 15.4108 65.1222C16.971 65.9574 18.8867 66.4537 20.6058 65.8138C22.1227 65.2727 23.1861 63.7332 23.1571 62.1314C23.1715 50.5517 23.15 38.9702 23.1679 27.3922C23.13 26.8782 23.6203 26.4535 24.1229 26.5018C25.4528 26.4929 26.7844 26.484 28.1143 26.5054C28.6694 26.4929 29.0514 27.0465 28.9828 27.5644C28.9774 39.2174 28.9971 50.8707 28.9738 62.5238C28.9774 65.6294 27.6944 69.0088 24.8057 70.5283C21.2471 72.3616 16.8487 71.9728 13.333 70.2149C10.2895 68.7042 7.38501 66.9214 4.3955 65.303C2.31804 64.2336 0.881629 61.9991 0.896253 59.6571V24.3477C0.874467 22.0505 2.24044 19.8373 4.26568 18.7531C14.6736 12.9119 25.0797 7.06625 35.4858 1.22236Z" fill="#8CC84B"/>
<path d="M44.5657 25.6811C49.105 25.3906 53.9646 25.509 58.0494 27.7329C61.212 29.4371 62.9653 33.0137 63.0211 36.5079C62.9328 36.9792 62.4374 37.2392 61.9849 37.2069C60.6679 37.2051 59.3506 37.2247 58.0336 37.1979C57.4749 37.2193 57.1502 36.7071 57.08 36.2159C56.7016 34.544 55.7848 32.8882 54.2024 32.0818C51.7734 30.8724 48.957 30.9332 46.3083 30.9584C44.3747 31.0605 42.2954 31.227 40.6573 32.3578C39.3996 33.2144 39.0176 34.9435 39.4665 36.3361C39.8897 37.336 41.0503 37.6586 42 37.956C47.4704 39.3788 53.2674 39.2372 58.6334 41.1097C60.855 41.8731 63.0283 43.357 63.7887 45.6702C64.7835 48.7706 64.3474 52.4763 62.1294 54.9653C60.3307 57.0134 57.7109 58.1282 55.0981 58.7337C51.6221 59.5044 48.0148 59.524 44.4848 59.1818C41.1655 58.8055 37.7114 57.9383 35.1489 55.6891C32.9577 53.7971 31.8875 50.849 31.9938 48.0036C32.0191 47.5231 32.5002 47.1881 32.9631 47.2275C34.2894 47.2168 35.6157 47.2133 36.942 47.2293C37.4717 47.1916 37.8645 47.6469 37.8916 48.1434C38.1363 49.7363 38.7383 51.4082 40.135 52.3526C42.8306 54.082 46.2128 53.9636 49.2993 54.012C51.8564 53.8992 54.7268 53.865 56.8135 52.1843C57.9145 51.2256 58.2407 49.6218 57.9431 48.242C57.6208 47.0771 56.3954 46.5342 55.3431 46.1792C49.9428 44.4804 44.081 45.0968 38.7329 43.1757C36.5617 42.4126 34.4622 40.9699 33.628 38.7517C32.4641 35.6122 32.9974 31.7289 35.448 29.324C37.8373 26.9318 41.2864 26.0106 44.5657 25.6808V25.6811Z" fill="#8CC84B"/>
</svg>
