<svg width="70" height="70" viewBox="0 0 70 70" fill="none" xmlns="http://www.w3.org/2000/svg">
<path d="M33.4077 15.9704C34.372 15.4185 35.628 15.416 36.5914 15.9704C41.4383 18.7092 46.2868 21.4437 51.1329 24.1841C52.0444 24.6976 52.6541 25.712 52.6448 26.7623V43.2398C52.6516 44.3336 51.9817 45.3722 51.0201 45.874C46.189 48.5977 41.3605 51.3247 36.5303 54.0484C35.5461 54.6111 34.2649 54.5678 33.3115 53.9589C31.8631 53.1193 30.4123 52.2839 28.9638 51.4451C28.6678 51.2686 28.3342 51.1282 28.1252 50.8412C28.3099 50.5922 28.6403 50.5611 28.9087 50.4524C29.5133 50.2602 30.0685 49.9516 30.6239 49.6521C30.7644 49.556 30.9358 49.5929 31.0705 49.6789C32.309 50.389 33.5365 51.1197 34.7792 51.8231C35.0443 51.9761 35.3127 51.7729 35.5393 51.6466C40.28 48.9672 45.0266 46.298 49.7665 43.6178C49.9421 43.5333 50.0392 43.3469 50.0249 43.1545C50.0282 37.7189 50.0257 32.2823 50.0266 26.8467C50.0466 26.6285 49.9203 26.4278 49.723 26.3384C44.9087 23.6272 40.0969 20.9118 35.2835 18.1999C35.2001 18.1426 35.1013 18.1118 35.0001 18.1117C34.8989 18.1115 34.8 18.142 34.7165 18.1991C29.903 20.9118 25.0921 23.6297 20.2786 26.3408C20.082 26.4303 19.95 26.6276 19.9734 26.8467C19.9742 32.2823 19.9734 37.7189 19.9734 43.1553C19.965 43.2492 19.9857 43.3434 20.0325 43.4252C20.0793 43.507 20.15 43.5724 20.2352 43.6128C21.5196 44.3412 22.8058 45.0645 24.0911 45.7904C24.8152 46.1801 25.7043 46.4117 26.5021 46.1131C27.2061 45.8606 27.6996 45.1422 27.6861 44.3947C27.6928 38.9908 27.6828 33.5861 27.6911 28.183C27.6735 27.9431 27.9011 27.7449 28.1343 27.7675C28.7515 27.7634 29.3695 27.7592 29.9867 27.7692C30.2443 27.7634 30.4216 28.0217 30.3897 28.2634C30.3872 33.7015 30.3964 39.1397 30.3856 44.5778C30.3872 46.0271 29.7918 47.6041 28.4512 48.3132C26.7997 49.1688 24.7584 48.9873 23.1268 48.167C21.7144 47.462 20.3665 46.63 18.9791 45.8747C18.0149 45.3757 17.3483 44.3329 17.3551 43.24V26.7623C17.345 25.6902 17.9789 24.6574 18.9188 24.1515C23.749 21.4256 28.5784 18.6976 33.4077 15.9704Z" fill="#8CC84B"/>
<path d="M37.6215 27.3845C39.7282 27.2489 41.9834 27.3042 43.8791 28.342C45.3469 29.1373 46.1606 30.8064 46.1865 32.437C46.1455 32.657 45.9156 32.7783 45.7056 32.7632C45.0944 32.7624 44.483 32.7715 43.8718 32.759C43.6125 32.769 43.4618 32.5299 43.4293 32.3007C43.2537 31.5205 42.8282 30.7478 42.0938 30.3715C40.9665 29.8071 39.6595 29.8355 38.4302 29.8473C37.5329 29.8949 36.5679 29.9726 35.8077 30.5003C35.224 30.9 35.0467 31.707 35.255 32.3568C35.4514 32.8234 35.9901 32.974 36.4308 33.1128C38.9696 33.7768 41.6599 33.7107 44.1502 34.5845C45.1812 34.9408 46.1898 35.6333 46.5427 36.7128C47.0043 38.1596 46.802 39.889 45.7726 41.0504C44.9379 42.0063 43.7221 42.5265 42.5095 42.809C40.8963 43.1687 39.2222 43.1779 37.584 43.0182C36.0435 42.8426 34.4405 42.4378 33.2513 41.3883C32.2344 40.5053 31.7377 39.1295 31.787 37.8017C31.7988 37.5775 32.0221 37.4211 32.2369 37.4395C32.8524 37.4345 33.4679 37.4329 34.0834 37.4403C34.3293 37.4227 34.5115 37.6352 34.5242 37.8669C34.6377 38.6103 34.9171 39.3905 35.5653 39.8312C36.8163 40.6383 38.3859 40.583 39.8183 40.6056C41.005 40.5529 42.3372 40.537 43.3056 39.7527C43.8165 39.3053 43.9679 38.5568 43.8298 37.9129C43.6802 37.3693 43.1115 37.116 42.6232 36.9503C40.1169 36.1575 37.3966 36.4452 34.9146 35.5486C33.907 35.1926 32.9326 34.5193 32.5455 33.4841C32.0053 32.019 32.2528 30.2068 33.3901 29.0845C34.4989 27.9682 36.0996 27.5383 37.6215 27.3844V27.3845Z" fill="#8CC84B"/>
</svg>
