<svg width="82" height="84" viewBox="0 0 82 84" fill="none" xmlns="http://www.w3.org/2000/svg">
<path d="M81.396 50.2518C80.9088 48.7804 79.6327 47.7556 77.9823 47.5096C77.2041 47.3938 76.3129 47.4432 75.2582 47.66C73.42 48.0382 72.0562 48.1822 71.0609 48.2101C74.8177 41.8849 77.8725 34.6719 79.6311 27.8821C82.4748 16.9031 80.9552 11.9015 79.1794 9.63914C74.48 3.65101 67.6237 0.434127 59.3522 0.335696C54.9397 0.281892 51.0661 1.15068 49.0453 1.77544C47.1639 1.44439 45.141 1.25955 43.0183 1.22537C39.0394 1.16207 35.5238 2.02706 32.5198 3.80483C30.8567 3.24399 28.1876 2.45338 25.1052 1.94888C17.8556 0.762018 12.0127 1.68682 7.7389 4.69766C2.56373 8.34308 0.164672 14.6768 0.608367 23.5229C0.749283 26.3315 2.32475 34.877 4.80538 42.9812C6.23104 47.6394 7.75128 51.5076 9.32389 54.4796C11.5541 58.6937 13.9405 61.1754 16.6195 62.0666C18.121 62.5654 20.8492 62.9148 23.7186 60.5316C24.0823 60.9709 24.5676 61.4074 25.2115 61.8128C26.0294 62.3271 27.0295 62.7474 28.0283 62.9965C31.6276 63.8938 34.9991 63.6694 37.8755 62.4116C37.8933 62.9218 37.907 63.4092 37.9184 63.8302C37.9374 64.5128 37.9565 65.1822 37.9815 65.8083C38.152 70.0411 38.4408 73.3324 39.2964 75.6352C39.3434 75.7618 39.4066 75.9549 39.4732 76.1596C39.9001 77.463 40.6139 79.6449 42.4299 81.3537C44.3104 83.1239 46.585 83.6666 48.6683 83.6666C49.7131 83.6666 50.71 83.5299 51.5844 83.3432C54.701 82.6769 58.2407 81.6623 60.8013 78.0263C63.2223 74.5892 64.3991 69.4122 64.6121 61.2551C64.6397 61.0244 64.6651 60.8041 64.6896 60.5943L64.7403 60.1632L65.3107 60.2132L65.4576 60.223C68.632 60.3674 72.5136 59.6961 74.8974 58.5918C76.781 57.7202 82.8172 54.5422 81.396 50.2518" fill="#1E2235"/>
<path d="M75.9683 51.0861C66.5295 53.0278 65.8805 49.841 65.8805 49.841C75.8462 35.0944 80.0124 16.3758 76.4174 11.7945C66.6092 -0.702439 49.631 5.20784 49.3476 5.36103L49.2565 5.37749C47.3916 4.99136 45.3048 4.76158 42.9591 4.72328C38.6884 4.65366 35.4486 5.83989 32.9902 7.699C32.9902 7.699 2.70279 -4.7438 4.11163 23.3479C4.41124 29.324 12.7012 68.5669 22.5888 56.7138C26.2028 52.3793 29.6949 48.7146 29.6949 48.7146C31.429 49.8635 33.5053 50.4496 35.6819 50.2392L35.8511 50.0961C35.7984 50.6342 35.8225 51.1605 35.9187 51.7837C33.3714 54.6217 34.1201 55.1199 29.0281 56.1653C23.8754 57.2243 26.9023 59.1093 28.8786 59.6024C31.2745 60.1997 36.8172 61.046 40.5622 55.8178L40.4131 56.4144C41.4109 57.2116 42.1117 61.5995 41.9942 65.5776C41.8768 69.5553 41.7984 72.2864 42.5846 74.4196C43.3714 76.5528 44.155 81.3525 50.8491 79.9222C56.4423 78.7268 59.3409 75.6293 59.7443 70.4621C60.0302 66.7888 60.678 67.332 60.7186 64.0477L61.2382 62.493C61.8371 57.5136 61.3334 55.907 64.7792 56.6543L65.617 56.7277C68.1529 56.8426 71.4727 56.3207 73.4211 55.4177C77.6162 53.4763 80.1044 50.2344 75.9677 51.0861H75.9683" fill="#0E7490"/>
<path d="M34.7632 26.0205C33.9126 25.9024 33.1423 26.0116 32.7526 26.3059C32.5336 26.4715 32.4657 26.6633 32.4472 26.7952C32.3984 27.145 32.644 27.5317 32.7951 27.7311C33.2223 28.2957 33.8462 28.6838 34.4639 28.7692C34.5534 28.7819 34.6426 28.7876 34.7311 28.7876C35.761 28.7876 36.6976 27.9878 36.7801 27.3975C36.8832 26.6582 35.807 26.1654 34.7632 26.0208V26.0205ZM62.9413 26.0439C62.86 25.4644 61.826 25.2992 60.8447 25.4353C59.8646 25.5714 58.9144 26.0125 58.9937 26.5933C59.0572 27.045 59.8751 27.8159 60.8431 27.8159C60.925 27.8159 61.0075 27.8106 61.0907 27.7988C61.7368 27.7096 62.211 27.3004 62.4363 27.0646C62.7791 26.705 62.9778 26.3044 62.9413 26.0439" fill="#1E2235"/>
<path d="M79.1093 50.8656C78.7494 49.7803 77.5909 49.4312 75.6663 49.8275C69.9519 51.0036 67.9055 50.1889 67.2336 49.6955C71.6753 42.9477 75.3293 34.7909 77.3005 27.1807C78.2342 23.5758 78.75 20.2279 78.7922 17.4991C78.8389 14.504 78.3272 12.3031 77.2723 10.9586C73.0188 5.53859 66.7759 2.63124 59.2191 2.55148C54.024 2.49325 49.6346 3.81906 48.7837 4.19189C46.9918 3.74753 45.0383 3.47471 42.9116 3.43989C39.0116 3.37691 35.6404 4.30805 32.8494 6.20609C31.637 5.75603 28.5038 4.68341 24.6721 4.06782C18.0478 3.00439 12.7838 3.8102 9.02726 6.46403C4.54491 9.63091 2.4756 15.2918 2.87645 23.2891C3.01134 25.9796 4.54872 34.2567 6.97477 42.1834C10.1682 52.6164 13.6397 58.5226 17.2921 59.7377C17.7196 59.8798 18.2125 59.9791 18.7562 59.9791C20.0885 59.9791 21.7221 59.3803 23.4217 57.3427C25.4946 54.8628 27.639 52.4431 29.8521 50.0867C31.2879 50.8551 32.8653 51.2843 34.4785 51.3273C34.4817 51.3694 34.4858 51.4115 34.4896 51.4533C34.2119 51.7835 33.94 52.1186 33.6739 52.4582C32.5561 53.8733 32.3235 54.1679 28.7254 54.9066C27.7018 55.1174 24.9835 55.676 24.9435 57.5763C24.9003 59.6525 28.1569 60.5245 28.528 60.6169C29.821 60.9397 31.0667 61.0989 32.2546 61.0989C35.1437 61.0989 37.6862 60.1519 39.7181 58.3197C39.6556 65.7214 39.965 73.0148 40.8562 75.2369C41.5862 77.0561 43.3692 81.502 49.0014 81.5016C49.8279 81.5016 50.7375 81.4058 51.7382 81.1918C57.6164 79.9353 60.169 77.3444 61.1564 71.6326C61.6848 68.58 62.5916 61.2907 63.0182 57.3807C63.9182 57.6608 65.077 57.789 66.3297 57.7887C68.9423 57.7887 71.9571 57.2351 73.8478 56.36C75.9717 55.3763 79.8043 52.9627 79.1093 50.8656V50.8656ZM65.1109 24.4443C65.0916 25.5986 64.9323 26.6465 64.7634 27.7403C64.5816 28.9167 64.3937 30.133 64.3464 31.6095C64.2997 33.0464 64.4797 34.5403 64.6536 35.9851C65.0053 38.9032 65.3661 41.9074 63.9693 44.8717C63.7373 44.4617 63.5306 44.038 63.3504 43.6029C63.1768 43.1832 62.7998 42.5091 62.2777 41.576C60.2468 37.9439 55.4909 29.4383 57.9255 25.9676C58.6507 24.9346 60.4912 23.8724 65.1109 24.4443V24.4443ZM59.5111 4.88882C66.2821 5.03789 71.6382 7.56386 75.4302 12.3962C78.3387 16.1027 75.136 32.9679 65.8644 47.5177C65.7712 47.3994 65.6774 47.2816 65.5832 47.1641L65.4658 47.0179C67.8617 43.0721 67.3932 39.1681 66.9762 35.7069C66.8048 34.2864 66.6429 32.9448 66.6842 31.6845C66.7267 30.3489 66.9038 29.2032 67.0752 28.0954C67.2856 26.7304 67.4999 25.3178 67.4408 23.6527C67.4849 23.478 67.5027 23.2717 67.4795 23.0267C67.3288 21.43 65.5007 16.6512 61.7747 12.3259C59.7365 9.96007 56.7642 7.31257 52.7059 5.52688C54.4515 5.16607 56.8385 4.82964 59.5111 4.88882V4.88882ZM21.6231 55.8514C19.7505 58.0966 18.4575 57.6662 18.0322 57.525C15.2615 56.6034 12.0465 50.7633 9.21197 41.5026C6.75927 33.4895 5.32598 25.4318 5.21236 23.1723C4.85436 16.0264 6.59137 11.0463 10.3755 8.36999C16.5339 4.01497 26.6589 6.62165 30.7274 7.94366C30.669 8.00127 30.6081 8.05507 30.5503 8.11362C23.8739 14.8373 24.0323 26.3249 24.0488 27.0272C24.0482 27.2982 24.071 27.6818 24.1021 28.2094C24.217 30.1416 24.4309 33.7376 23.8596 37.81C23.329 41.5944 24.4988 45.2984 27.0687 47.9725C27.3324 48.2464 27.6096 48.5071 27.8992 48.7536C26.7554 49.9753 24.2694 52.6769 21.6231 55.8514V55.8514ZM28.7574 46.3586C26.6862 44.2033 25.7455 41.2054 26.1762 38.1328C26.7792 33.831 26.5567 30.0843 26.4371 28.0714C26.4203 27.7897 26.4053 27.5428 26.3968 27.3482C27.3721 26.4857 31.8919 24.0708 35.1152 24.8073C36.5859 25.1431 37.4822 26.142 37.8548 27.8599C39.7832 36.7545 38.1099 40.4616 36.7655 43.4408C36.4885 44.0545 36.2266 44.6347 36.0032 45.2347L35.8299 45.6987C35.3913 46.8717 34.9831 47.9623 34.7302 48.9979C32.5282 48.9916 30.3862 48.0535 28.7574 46.3583V46.3586ZM29.0954 58.3539C28.4524 58.1938 27.8742 57.9156 27.5349 57.6848C27.8183 57.5519 28.3226 57.3709 29.1973 57.1911C33.4302 56.3223 34.084 55.7089 35.5116 53.9014C35.8388 53.4868 36.2098 53.0171 36.7236 52.4449L36.7243 52.4443C37.4895 51.5897 37.8395 51.7347 38.4743 51.9974C38.9888 52.2094 39.4899 52.8525 39.693 53.5602C39.7892 53.8945 39.8971 54.5287 39.5439 55.0225C36.5618 59.1863 32.2162 59.1328 29.0954 58.3539V58.3539ZM51.2482 78.9111C46.0698 80.0176 44.2363 77.3827 43.028 74.3706C42.2483 72.4261 41.8649 63.6572 42.1369 53.9733C42.1403 53.8445 42.1219 53.7201 42.0864 53.603C42.0546 53.3717 42.0062 53.143 41.9417 52.9187C41.5373 51.5096 40.5519 50.331 39.3696 49.8423C38.8999 49.6483 38.0379 49.2923 37.002 49.5565C37.2229 48.6488 37.6059 47.6237 38.0214 46.5137L38.1956 46.0469C38.3918 45.5205 38.6381 44.9752 38.8983 44.3979C40.3053 41.2811 42.2321 37.0118 40.1409 27.3672C39.3576 23.7546 36.7417 21.9905 32.7764 22.4004C30.3992 22.6456 28.2242 23.6021 27.1394 24.1506C26.9062 24.2683 26.6929 24.3823 26.4936 24.493C26.7963 20.8533 27.9402 14.0511 32.2191 9.74739C34.9133 7.03816 38.5013 5.70001 42.8729 5.77217C51.4865 5.91269 57.0102 10.3209 60.1275 13.9945C62.8138 17.1598 64.2683 20.3485 64.8488 22.0683C60.4832 21.6256 57.5142 22.4849 56.0092 24.6307C52.7348 29.2984 57.8004 38.3579 60.2351 42.7119C60.6816 43.5098 61.0669 44.1995 61.1881 44.4926C61.981 46.4086 63.0074 47.6879 63.7567 48.6216C63.9865 48.9077 64.2093 49.1853 64.3788 49.4277C63.0566 49.8078 60.6816 50.6861 60.8981 55.0763C60.7235 57.2791 59.4822 67.5925 58.8516 71.2363C58.0191 76.0503 56.2427 77.8432 51.2482 78.9114V78.9111ZM72.8629 54.2445C71.5109 54.8702 69.2483 55.3396 67.099 55.4406C64.725 55.5513 63.5164 55.1753 63.2321 54.944C63.0988 52.2082 64.1198 51.9224 65.2004 51.6198C65.3702 51.5723 65.5359 51.5258 65.6959 51.4701C65.7952 51.5508 65.9041 51.6309 66.0234 51.7094C67.9315 52.9652 71.3348 53.1007 76.1395 52.1116L76.1922 52.1012C75.5441 52.7054 74.4352 53.5162 72.8629 54.2445Z" fill="#1E2235"/>
</svg>
