<svg width="103" height="106" viewBox="0 0 103 106" fill="none" xmlns="http://www.w3.org/2000/svg">
<g clip-path="url(#clip0_178_1158)">
<path d="M63.8547 64.479L61.8948 67.9764C61.3044 69.0299 60.2114 69.6792 59.0283 69.6792H44.0141C42.8311 69.6792 41.7381 69.0299 41.1476 67.9764L39.1875 64.479H63.8547ZM69.3416 54.6886L65.8858 60.8549H37.1565L33.7008 54.6886H69.3416ZM66.0128 45.1147L69.3472 51.0645H33.6953L37.0297 45.1147H66.0128ZM59.0283 36.0641C60.2114 36.0641 61.3044 36.7134 61.8948 37.7669L63.9817 41.4905H39.0607L41.1476 37.7669C41.7381 36.7134 42.8311 36.0641 44.0141 36.0641H59.0283Z" fill="#00435B"/>
<path d="M22.1626 34.4412C20.4994 26.1536 20.1425 19.7971 21.2176 15.1814C21.857 12.4363 23.026 10.1968 24.8035 8.58105C26.6801 6.87526 29.0527 6.03822 31.7185 6.03822C36.1164 6.03822 40.7397 8.09912 45.6805 12.0143C47.6958 13.6112 49.7874 15.5361 51.9596 17.7899C52.1324 17.5612 52.3279 17.3454 52.5456 17.146C58.6868 11.5222 63.8571 8.02809 68.2793 6.68086C70.9088 5.87979 73.3775 5.80348 75.6256 6.58094C77.9987 7.4016 79.8895 9.09803 81.2235 11.4742C83.4252 15.3957 84.0058 20.5486 83.1849 26.9111C82.8504 29.5045 82.2784 32.3295 81.4703 35.3904C81.7751 35.4282 82.0808 35.4977 82.3834 35.6007C90.1751 38.2541 95.6925 41.1076 99.0329 44.3685C101.02 46.3087 102.318 48.4687 102.787 50.8597C103.282 53.3834 102.8 55.9147 101.467 58.2891C99.2696 62.2049 95.229 65.2933 89.4726 67.7395C87.1612 68.7218 84.5461 69.6114 81.6241 70.4114C81.7575 70.7208 81.8609 71.0493 81.9301 71.3939C83.5933 79.6815 83.9502 86.038 82.8751 90.6538C82.2357 93.3989 81.0668 95.6384 79.2893 97.2541C77.4127 98.9599 75.0401 99.797 72.3742 99.797C67.9763 99.797 63.353 97.7361 58.4122 93.8209C56.3755 92.207 54.2608 90.2581 52.0638 87.9732C51.8377 88.3366 51.5602 88.6743 51.2319 88.975C45.0907 94.5987 39.9204 98.0929 35.4982 99.4401C32.8688 100.241 30.4 100.318 28.1519 99.54C25.7789 98.7194 23.888 97.0229 22.554 94.6468C20.3524 90.7253 19.7718 85.5724 20.5926 79.2099C20.9392 76.5227 21.5408 73.587 22.3958 70.3977C22.0616 70.3629 21.726 70.2903 21.3942 70.1773C13.6024 67.5239 8.08499 64.6705 4.74462 61.4095C2.75719 59.4693 1.45938 57.3093 0.990225 54.9183C0.495035 52.3946 0.977884 49.8633 2.31037 47.4889C4.5079 43.5731 8.54852 40.4847 14.3049 38.0385C16.6852 37.027 19.3876 36.1137 22.4154 35.2953C22.3075 35.0239 22.2223 34.7386 22.1626 34.4412Z" fill="#002B3B"/>
<path d="M76.494 72.2086C77.2688 72.0676 78.0112 72.578 78.1841 73.361L78.1936 73.4074L78.2762 73.8481C80.9543 88.317 79.0678 95.5515 72.6166 95.5515C66.3048 95.5515 58.27 89.3783 48.5121 77.0319C48.2965 76.7591 48.1802 76.4177 48.1831 76.0662C48.1902 75.2476 48.8295 74.5868 49.6204 74.569L49.6662 74.5687L50.1801 74.5725C54.2862 74.5954 58.278 74.4482 62.1555 74.1311C66.7326 73.7568 71.5121 73.1159 76.494 72.2086ZM32.1901 61.2716L32.2148 61.3145L32.4726 61.7769C34.5389 65.4683 36.6916 68.972 38.9309 72.2878C41.568 76.1928 44.5335 80.1459 47.8275 84.1473C48.3371 84.7663 48.2789 85.6851 47.7041 86.2315L47.6667 86.2659L47.3352 86.559C36.4366 96.1554 29.3529 98.0711 26.0841 92.3063C22.8845 86.6634 24.0446 76.403 29.5642 61.5252C29.6855 61.1983 29.9135 60.9247 30.2092 60.7513C30.9003 60.3459 31.7765 60.58 32.1901 61.2716ZM82.0245 39.9214L82.0692 39.9363L82.4794 40.0819C95.932 44.8908 101.043 50.1756 97.8124 55.9362C94.6527 61.5704 85.4673 65.6725 70.256 68.2426C69.9167 68.2999 69.5687 68.2333 69.2723 68.0542C68.5724 67.6314 68.3385 66.7055 68.75 65.9862C70.9287 62.1778 72.8909 58.3884 74.6367 54.6181C76.6166 50.342 78.4746 45.7523 80.2108 40.8489C80.474 40.1054 81.2473 39.7017 81.9797 39.908L82.0245 39.9214ZM34.5053 37.5002C35.2052 37.923 35.4391 38.8489 35.0276 39.5682C32.8489 43.3766 30.8867 47.166 29.1409 50.9363C27.161 55.2124 25.303 59.8021 23.5668 64.7055C23.2982 65.4641 22.4986 65.8691 21.7531 65.633L21.7084 65.6181L21.2982 65.4725C7.84562 60.6636 2.73463 55.3788 5.96524 49.6181C9.12488 43.984 18.3104 39.8819 33.5217 37.3118C33.8609 37.2545 34.2089 37.3211 34.5053 37.5002ZM77.6935 13.8147C80.8931 19.4576 79.733 29.7179 74.2134 44.5958C74.0921 44.9227 73.8641 45.1962 73.5684 45.3697C72.8773 45.775 72.0011 45.541 71.5875 44.8494L71.5628 44.8065L71.305 44.3441C69.2387 40.6526 67.086 37.149 64.8467 33.8331C62.2096 29.9282 59.2441 25.975 55.9501 21.9737C55.4405 21.3547 55.4987 20.4359 56.0736 19.8894L56.111 19.8551L56.4424 19.5619C67.341 9.96557 74.4247 8.04982 77.6935 13.8147ZM31.7123 10.3806C38.0241 10.3806 46.0589 16.5538 55.8168 28.9002C56.0324 29.173 56.1487 29.5144 56.1458 29.8659C56.1387 30.6845 55.4995 31.3453 54.7085 31.3631L54.6627 31.3634L54.1488 31.3596C50.0427 31.3367 46.0509 31.4839 42.1734 31.801C37.5963 32.1753 32.8168 32.8162 27.8349 33.7235C27.0602 33.8645 26.3178 33.3541 26.1448 32.5711L26.1353 32.5247L26.0527 32.084C23.3746 17.6151 25.2611 10.3806 31.7123 10.3806Z" fill="#FF4154"/>
<path d="M57.8239 36.2529H45.221C43.3779 36.2529 41.6756 37.266 40.7581 38.9087L34.4301 50.2396C33.5197 51.8696 33.5197 53.8737 34.4301 55.5037L40.7581 66.8346C41.6756 68.4773 43.3779 69.4903 45.221 69.4903H57.8239C59.667 69.4903 61.3694 68.4773 62.2868 66.8346L68.6149 55.5037C69.5252 53.8737 69.5252 51.8696 68.6149 50.2396L62.2868 38.9087C61.3694 37.266 59.667 36.2529 57.8239 36.2529Z" fill="#FFD94C"/>
</g>
<defs>
<clipPath id="clip0_178_1158">
<rect width="102.177" height="105" fill="white" transform="translate(0.800049 0.5)"/>
</clipPath>
</defs>
</svg>
