<svg width="85" height="92" viewBox="0 0 85 92" fill="none" xmlns="http://www.w3.org/2000/svg">
<path d="M42.5834 53.3469C46.6635 53.3469 49.971 50.0576 49.971 46.0001C49.971 41.9425 46.6635 38.6532 42.5834 38.6532C38.5033 38.6532 35.1957 41.9425 35.1957 46.0001C35.1957 50.0576 38.5033 53.3469 42.5834 53.3469Z" fill="#61DAFB"/>
<path fill-rule="evenodd" clip-rule="evenodd" d="M7.86214 42.1293C6.18916 43.6312 5.63556 44.9437 5.63556 46C5.63556 47.0563 6.18916 48.3688 7.86214 49.8707C9.53482 51.3723 12.1065 52.8474 15.5135 54.1411C22.309 56.7214 31.8789 58.3736 42.5833 58.3736C53.2877 58.3736 62.8576 56.7214 69.6531 54.1411C73.0601 52.8474 75.6318 51.3723 77.3045 49.8707C78.9774 48.3688 79.531 47.0563 79.531 46C79.531 44.9437 78.9774 43.6312 77.3045 42.1293C75.6318 40.6277 73.0601 39.1526 69.6531 37.8589C62.8576 35.2786 53.2877 33.6265 42.5833 33.6265C31.8789 33.6265 22.309 35.2786 15.5135 37.8589C12.1065 39.1526 9.53482 40.6277 7.86214 42.1293ZM13.592 32.8542C21.1437 29.9867 31.3945 28.2693 42.5833 28.2693C53.7721 28.2693 64.0229 29.9867 71.5746 32.8542C75.3412 34.2844 78.5749 36.0528 80.9141 38.1528C83.2531 40.2525 84.9179 42.8998 84.9179 46C84.9179 49.1003 83.2531 51.7475 80.9141 53.8473C78.5749 55.9473 75.3412 57.7156 71.5746 59.1458C64.0229 62.0133 53.7721 63.7307 42.5833 63.7307C31.3945 63.7307 21.1437 62.0133 13.592 59.1458C9.82537 57.7156 6.59171 55.9473 4.25248 53.8473C1.91355 51.7475 0.248657 49.1003 0.248657 46C0.248657 42.8998 1.91355 40.2525 4.25248 38.1528C6.59171 36.0528 9.82537 34.2844 13.592 32.8542Z" fill="#61DAFB"/>
<path fill-rule="evenodd" clip-rule="evenodd" d="M28.5934 14.1614C26.449 13.4715 25.0292 13.6509 24.1094 14.1791C23.1895 14.7072 22.3233 15.8403 21.8519 18.032C21.3806 20.2234 21.3819 23.1758 21.9588 26.7569C23.1095 33.8997 26.4557 42.9677 31.8079 52.1867C37.1601 61.4058 43.3838 68.8217 49.0286 73.3841C51.8587 75.6716 54.4291 77.1488 56.5731 77.8386C58.7175 78.5285 60.1373 78.349 61.0571 77.8209C61.977 77.2927 62.8432 76.1597 63.3146 73.9679C63.7859 71.7765 63.7846 68.8242 63.2077 65.2431C62.057 58.1003 58.7108 49.0323 53.3586 39.8132C48.0064 30.5941 41.7827 23.1783 36.1379 18.6158C33.3078 16.3284 30.7374 14.8511 28.5934 14.1614ZM39.5354 14.4586C45.8084 19.5287 52.4294 27.4984 58.0238 37.1346C63.6182 46.7709 67.248 56.458 68.5268 64.3956C69.1646 68.3546 69.2415 72.0238 68.5823 75.0884C67.9233 78.1527 66.4504 80.9102 63.7506 82.4603C61.0508 84.0104 57.913 83.9002 54.915 82.9356C51.9166 81.971 48.7598 80.0702 45.631 77.5414C39.3581 72.4712 32.7371 64.5016 27.1427 54.8653C21.5483 45.229 17.9185 35.542 16.6397 27.6044C16.0019 23.6453 15.925 19.9762 16.5842 16.9115C17.2432 13.8473 18.7161 11.0898 21.4159 9.53966C24.1157 7.98953 27.2535 8.09978 30.2515 9.0643C33.2499 10.0289 36.4067 11.9297 39.5354 14.4586Z" fill="#61DAFB"/>
<path fill-rule="evenodd" clip-rule="evenodd" d="M63.3146 18.032C62.8432 15.8402 61.977 14.7072 61.0572 14.1791C60.1373 13.6509 58.7175 13.4714 56.5732 14.1613C54.4292 14.8511 51.8588 16.3284 49.0287 18.6158C43.3839 23.1782 37.1602 30.5941 31.808 39.8132C26.4558 49.0323 23.1096 58.1003 21.9589 65.243C21.3819 68.8241 21.3807 71.7765 21.852 73.9679C22.3234 76.1597 23.1896 77.2927 24.1095 77.8208C25.0293 78.349 26.4491 78.5285 28.5935 77.8386C30.7375 77.1488 33.3079 75.6715 36.138 73.3841C41.7828 68.8217 48.0064 61.4058 53.3586 52.1867C58.7108 42.9676 62.057 33.8996 63.2078 26.7569C63.7847 23.1758 63.786 20.2234 63.3146 18.032ZM68.5268 27.6044C67.2481 35.542 63.6183 45.229 58.0238 54.8653C52.4294 64.5016 45.8085 72.4712 39.5355 77.5414C36.4067 80.0702 33.2499 81.971 30.2516 82.9356C27.2536 83.9001 24.1158 84.0104 21.416 82.4603C18.7162 80.9102 17.2433 78.1526 16.5843 75.0884C15.9251 72.0238 16.002 68.3546 16.6398 64.3955C17.9186 56.4579 21.5484 46.7709 27.1428 37.1346C32.7372 27.4983 39.3581 19.5287 45.6311 14.4585C48.7599 11.9297 51.9167 10.0289 54.9151 9.06427C57.9131 8.09975 61.0508 7.98951 63.7506 9.53963C66.4504 11.0898 67.9233 13.8473 68.5824 16.9115C69.2415 19.9761 69.1647 23.6453 68.5268 27.6044Z" fill="#61DAFB"/>
</svg>
