<svg width="84" height="80" viewBox="0 0 84 80" fill="none" xmlns="http://www.w3.org/2000/svg">
<path d="M58.0806 55.6954C61.1729 55.377 63.5189 52.726 63.4122 49.5443C63.3058 46.363 60.6397 43.8177 57.4407 43.8177H57.2276C53.9216 43.9239 51.3625 46.681 51.4692 49.9685C51.5759 51.5593 52.2155 52.9379 53.1752 53.8923C49.5497 60.9978 44.0048 66.194 35.6873 70.542C30.0357 73.5114 24.1709 74.572 18.3061 73.8298C13.5075 73.1934 9.77527 71.0726 7.42897 67.5726C4.01688 62.3763 3.69708 56.7556 6.57627 51.1351C8.60244 47.1052 11.8011 44.1358 13.8273 42.6511C13.4008 41.2725 12.7608 38.9395 12.441 37.2429C-3.02103 48.378 -1.42137 63.4369 3.27057 70.542C6.78936 75.8448 13.934 79.1322 21.8249 79.1322C23.9575 79.1322 26.09 78.92 28.2229 78.39C41.8722 75.7386 52.2158 67.6787 58.0806 55.6954ZM76.8484 42.5453C68.744 33.1068 56.8011 27.9105 43.1518 27.9105H41.4457C40.486 26.0017 38.4598 24.7289 36.2206 24.7289H36.0071C32.7018 24.835 30.1427 27.5922 30.2491 30.8799C30.3558 34.0612 33.0216 36.6065 36.2206 36.6065H36.4336C38.7796 36.5004 40.8058 35.0157 41.6588 33.0007H43.5783C51.6826 33.0007 59.3601 35.3337 66.2917 39.8939C71.6232 43.3936 75.4621 47.9538 77.5947 53.4681C79.4074 57.9222 79.3007 62.2702 77.3813 65.9821C74.3957 71.6026 69.384 74.6781 62.7725 74.6781C58.5071 74.6781 54.4551 73.4053 52.3222 72.4509C51.1494 73.5114 49.0165 75.208 47.5236 76.2689C52.1091 78.3897 56.8011 79.5564 61.2796 79.5564C71.5165 79.5564 79.0876 73.9356 81.9668 68.3151C85.0591 62.1641 84.8457 51.5593 76.8484 42.5453ZM22.6779 57.4978C22.7847 60.6794 25.4504 63.2243 28.6494 63.2243H28.8628C32.1685 63.1185 34.7276 60.361 34.6209 57.0736C34.5145 53.892 31.8484 51.347 28.6494 51.347H28.4363C28.2229 51.347 27.9028 51.347 27.69 51.4528C23.3179 44.2416 21.5051 36.3942 22.1451 27.9102C22.5712 21.5472 24.7041 16.0326 28.4363 11.4724C31.5286 7.54854 37.5001 5.63969 41.5524 5.53389C52.8554 5.32165 57.6538 19.32 57.9739 24.9408C59.3601 25.2588 61.7061 26.0013 63.3058 26.5316C62.0259 9.35193 51.3625 0.443726 41.1259 0.443726C31.5286 0.443726 22.6779 7.33695 19.1588 17.5176C14.2538 31.0918 17.4528 44.1358 23.4243 54.4226C22.8914 55.1647 22.5712 56.3314 22.6779 57.4981V57.4978Z" fill="#8B5CF6"/>
</svg>
