<svg width="85" height="64" viewBox="0 0 85 64" fill="none" xmlns="http://www.w3.org/2000/svg">
<path d="M72.8403 36.6784C69.917 36.6937 67.3762 37.3938 65.2487 38.4289C64.4681 36.8915 63.6875 35.5216 63.5498 34.517C63.3967 33.345 63.2131 32.6296 63.3967 31.2293C63.5804 29.8289 64.4069 27.835 64.3916 27.6827C64.3763 27.5305 64.2079 26.8151 62.5243 26.7999C60.8407 26.7847 59.3866 27.1196 59.2183 27.561C59.0499 28.0024 58.7285 29.007 58.5142 30.042C58.2234 31.5641 55.1469 36.9981 53.3868 39.8444C52.8205 38.7333 52.3307 37.7591 52.2235 36.9829C52.0705 35.8108 51.8868 35.0954 52.0705 33.6951C52.2542 32.2948 53.0807 30.3008 53.0654 30.1486C53.0501 29.9964 52.8817 29.281 51.1981 29.2657C49.5144 29.2505 48.0604 29.5854 47.892 30.0268C47.7237 30.4682 47.54 31.5033 47.188 32.5079C46.8359 33.5124 42.7493 42.5843 41.6779 44.9283C41.1269 46.1308 40.6524 47.0897 40.3157 47.7442C40.3157 47.7442 40.3004 47.7899 40.2545 47.866C39.9637 48.4292 39.7953 48.7336 39.7953 48.7336C39.7953 48.7336 39.7953 48.7336 39.7953 48.7488C39.5657 49.1598 39.3208 49.5403 39.1984 49.5403C39.1065 49.5403 38.9382 48.4444 39.229 46.9527C39.8412 43.8019 41.2953 38.9007 41.28 38.7333C41.28 38.642 41.5555 37.7896 40.331 37.3482C39.1372 36.9068 38.7086 37.6374 38.6015 37.6374C38.4943 37.6374 38.4178 37.8961 38.4178 37.8961C38.4178 37.8961 39.7494 32.3861 35.877 32.3861C33.4587 32.3861 30.1221 35.0193 28.4691 37.3938C27.4283 37.957 25.209 39.1595 22.8366 40.4533C21.9335 40.9556 20.9999 41.4579 20.1275 41.9297C20.0662 41.8689 20.005 41.7928 19.9438 41.7319C15.2602 36.7546 6.5972 33.2385 6.96454 26.5564C7.10229 24.121 7.9441 17.7281 23.6019 9.96532C36.4893 3.64854 46.7441 5.39897 48.5196 9.28036C51.0603 14.8209 43.0248 25.1104 29.7088 26.602C24.6273 27.1652 21.9641 25.2169 21.2907 24.4863C20.5866 23.7252 20.4795 23.6796 20.2193 23.8318C19.7907 24.0601 20.0662 24.7451 20.2193 25.1408C20.6172 26.1758 22.2549 28.0024 25.0253 28.9004C27.4742 29.6919 33.4281 30.1333 40.6371 27.3631C48.7032 24.258 55.0092 15.6276 53.1572 8.39754C51.3052 1.06094 39.0606 -1.35922 27.4742 2.73527C20.5866 5.17065 13.1174 9.00638 7.74513 13.9989C1.36264 19.9352 0.352468 25.0951 0.765722 27.2566C2.25038 34.928 12.8879 39.9206 17.1428 43.6193C16.9286 43.7411 16.7296 43.8476 16.5612 43.9389C14.4337 44.9892 6.3217 49.2055 4.30134 53.6653C2.00549 58.7187 4.66868 62.3413 6.42884 62.8284C11.893 64.3353 17.5102 61.6259 20.5254 57.1509C23.5406 52.6759 23.1733 46.8614 21.7805 44.1977C21.7652 44.1673 21.7499 44.1368 21.7192 44.1064C22.2703 43.7867 22.8366 43.4519 23.3876 43.1322C24.4743 42.4929 25.5457 41.8993 26.464 41.4122C25.9436 42.8278 25.561 44.5173 25.3773 46.9527C25.1477 49.8143 26.3263 53.5283 27.8721 54.9895C28.5609 55.6288 29.3721 55.644 29.8925 55.644C31.6986 55.644 32.5098 54.1523 33.4128 52.3867C34.5148 50.2253 35.5097 47.7138 35.5097 47.7138C35.5097 47.7138 34.2699 54.5024 37.6372 54.5024C38.8617 54.5024 40.1014 52.9194 40.6524 52.1127C40.6524 52.1279 40.6524 52.1279 40.6524 52.1279C40.6524 52.1279 40.683 52.0823 40.7443 51.9757C40.8667 51.7778 40.9432 51.6561 40.9432 51.6561C40.9432 51.6561 40.9432 51.6408 40.9432 51.6256C41.433 50.7732 42.535 48.8401 44.1727 45.6285C46.2849 41.4883 48.3206 36.3131 48.3206 36.3131C48.3206 36.3131 48.5043 37.5765 49.1318 39.677C49.4991 40.9099 50.2644 42.2646 50.8766 43.5736C50.3869 44.2586 50.0807 44.6391 50.0807 44.6391C50.0807 44.6391 50.0807 44.6391 50.096 44.6543C49.6981 45.1718 49.2695 45.735 48.7951 46.283C47.1267 48.2617 45.137 50.5297 44.8615 51.1842C44.5401 51.9605 44.6166 52.5237 45.2288 52.9803C45.6727 53.3152 46.4686 53.3608 47.2798 53.3152C48.7798 53.2086 49.8359 52.8433 50.3562 52.615C51.1674 52.3258 52.1164 51.8844 53.0041 51.2299C54.6418 50.0274 55.6367 48.3074 55.5449 46.0395C55.499 44.7913 55.0857 43.5432 54.5806 42.3712C54.7337 42.1581 54.8714 41.945 55.0245 41.7319C57.6112 37.9722 59.6162 33.8473 59.6162 33.8473C59.6162 33.8473 59.7999 35.1107 60.4274 37.2112C60.7335 38.2767 61.3611 39.4335 61.9121 40.5598C59.4785 42.5234 57.9785 44.8065 57.4428 46.2982C56.4785 49.0685 57.2285 50.3166 58.6519 50.6058C59.2948 50.7428 60.2131 50.4384 60.8866 50.1492C61.7437 49.8752 62.7539 49.4033 63.7181 48.7032C65.3558 47.5007 66.9323 45.8264 66.8405 43.5584C66.7946 42.5234 66.5191 41.5036 66.1364 40.5142C68.2027 39.6618 70.8659 39.1899 74.2638 39.5857C81.5493 40.4381 82.988 44.9588 82.7125 46.8614C82.437 48.764 80.9065 49.7991 80.4014 50.1187C79.8963 50.4384 79.7279 50.5449 79.7738 50.7732C79.8351 51.1081 80.08 51.0929 80.5085 51.032C81.1054 50.9254 84.335 49.4947 84.4727 45.9938C84.7023 41.5188 80.4167 36.6328 72.8403 36.6784ZM16.6378 55.5222C14.2194 58.1403 10.8522 59.1297 9.39815 58.2925C7.83696 57.3944 8.44919 53.5283 11.4185 50.758C13.2246 49.0685 15.551 47.5007 17.0969 46.5417C17.449 46.3287 17.9694 46.0242 18.5969 45.6437C18.704 45.5828 18.7652 45.5524 18.7652 45.5524C18.8877 45.4763 19.0101 45.4002 19.1326 45.3241C20.2193 49.2816 19.1785 52.7672 16.6378 55.5222ZM34.2393 43.6193C33.3975 45.6589 31.6374 50.8798 30.566 50.5906C29.6476 50.347 29.0813 46.3895 30.3823 42.4777C31.0404 40.5142 32.4333 38.1701 33.2445 37.2569C34.5607 35.7956 36.0148 35.3085 36.3668 35.9022C36.8107 36.6784 34.7597 42.3407 34.2393 43.6193ZM48.7645 50.5297C48.4124 50.7123 48.0757 50.8341 47.9226 50.7428C47.8155 50.6819 48.0757 50.4384 48.0757 50.4384C48.0757 50.4384 49.8971 48.4901 50.6164 47.6072C51.0297 47.0897 51.5195 46.4809 52.0399 45.7959C52.0399 45.8568 52.0399 45.9329 52.0399 45.9938C52.0399 48.3226 49.7746 49.8904 48.7645 50.5297ZM59.9682 47.9878C59.708 47.8051 59.754 47.1963 60.6264 45.2936C60.9631 44.5478 61.759 43.2996 63.1212 42.0972C63.2743 42.5843 63.3814 43.0561 63.3661 43.4975C63.3508 46.4352 61.2386 47.5311 59.9682 47.9878Z" fill="#F472B6"/>
</svg>
