<svg width="29" height="25" viewBox="0 0 29 25" fill="none" xmlns="http://www.w3.org/2000/svg">
<path d="M26.3594 0.376763L1.98145 10.2136C0.317427 10.9125 0.320541 11.8998 1.66446 12.3492L7.71364 14.4092L9.98176 22.0124C10.2581 22.8447 10.1169 23.1732 10.9343 23.1787C11.5651 23.183 11.8471 22.8781 12.2009 22.5143C12.426 22.2826 13.7619 20.9157 15.2537 19.3895L21.5264 24.4032C22.6822 25.0941 23.5226 24.746 23.8216 23.269L28.1032 2.48616C28.5394 0.676307 27.4733 -0.153245 26.3594 0.376763ZM8.6683 13.9519L22.3969 4.84731C23.0821 4.41059 23.706 4.65215 23.1891 5.13499L11.4108 16.3181L10.9198 21.4991L8.6683 13.9519Z" fill="#61DAFB"/>
</svg>
