<svg width="85" height="84" viewBox="0 0 85 84" fill="none" xmlns="http://www.w3.org/2000/svg">
<path d="M0.851929 0.333313H84.6482V83.6666H0.851929V0.333313Z" fill="#017ACB"/>
<path d="M41.0872 31.1927H45.1069V38.0937H34.2395V68.7969L33.9515 68.875C33.5587 68.9791 28.3868 68.9791 27.2739 68.862L26.3836 68.7838V38.0937H15.5162V31.1927L18.9597 31.1536C20.8452 31.1276 25.6896 31.1276 29.7224 31.1536C33.7551 31.1797 38.8614 31.1927 41.0872 31.1927ZM71.7646 65.5416C70.1672 67.2213 68.452 68.1588 65.5977 68.9271C64.3539 69.2656 64.1444 69.2786 61.3424 69.2656C58.5405 69.2526 58.3179 69.2526 56.9562 68.901C53.4341 68.0026 50.5929 66.2448 48.6551 63.7578C48.1052 63.0547 47.2018 61.5963 47.2018 61.414C47.2018 61.362 47.3327 61.2448 47.5029 61.1666C47.6731 61.0885 48.0266 60.8672 48.3147 60.6979C48.6027 60.5286 49.1265 60.2161 49.48 60.0338C49.8335 59.8515 50.8548 59.2526 51.7451 58.7187C52.6354 58.1849 53.4472 57.7552 53.5389 57.7552C53.6305 57.7552 53.8007 57.9375 53.9317 58.1588C54.7173 59.4739 56.5503 61.1536 57.8465 61.7265C58.6452 62.0651 60.4128 62.4427 61.2639 62.4427C62.0494 62.4427 63.4897 62.1041 64.2622 61.7526C65.0871 61.375 65.5061 60.9974 66.0036 60.2422C66.344 59.7083 66.3833 59.5651 66.3702 58.5495C66.3702 57.612 66.3178 57.3515 66.056 56.9219C65.3227 55.7239 64.3277 55.0989 60.295 53.3281C56.1313 51.4922 54.259 50.3984 52.7402 48.9271C51.6142 47.8333 51.3916 47.5338 50.6846 46.1666C49.768 44.4088 49.6502 43.8359 49.6371 41.2187C49.624 39.3828 49.6633 38.7838 49.8597 38.1588C50.1346 37.2213 51.025 35.4114 51.4309 34.9557C52.2688 33.9791 52.57 33.6797 53.1592 33.1979C54.9398 31.7396 57.7156 30.776 60.3735 30.6849C60.6747 30.6849 61.6697 30.737 62.5994 30.8021C65.2704 31.0234 67.0903 31.6745 68.8448 33.0677C70.1672 34.1094 72.1705 36.5573 71.9741 36.8828C71.8432 37.0781 66.619 40.5416 66.2786 40.6458C66.0691 40.7109 65.925 40.6328 65.637 40.2942C63.8563 38.1719 63.1362 37.7161 61.4079 37.612C60.1771 37.5338 59.5225 37.6771 58.6976 38.2239C57.8334 38.7969 57.4145 39.6692 57.4145 40.8802C57.4276 42.651 58.1084 43.4844 60.6223 44.7213C62.2458 45.5156 63.6337 46.1666 63.7385 46.1666C63.8956 46.1666 67.2605 47.8333 68.1378 48.3541C72.2229 50.737 73.8857 53.1849 74.3178 57.4036C74.632 60.5807 73.7286 63.4844 71.7646 65.5416Z" fill="#1E2235"/>
</svg>
