<svg width="130" height="111" viewBox="0 0 130 111" fill="none" xmlns="http://www.w3.org/2000/svg">
<path d="M73.3867 97.3L81.7738 110.5L106.935 103.9V97.3L94.3545 88.5H81.7738L73.3867 97.3Z" fill="#F9D549"/>
<path d="M98.5484 24.7L96.4516 15.9L88.0645 13.7L83.871 0.5H67.0968L58.7097 18.1L50.3226 4.9L18.871 0.5L8.3871 7.1L10.4839 24.7L0 35.7V49.0862L2.09677 57.7L14.6774 64.3L33.5484 53.3L52.4194 57.7L54.5161 64.3L46.129 70.9L41.9355 79.7L46.129 86.3L69.1935 70.9L81.7742 79.7H94.3548L115.323 64.3L119.516 55.5C119.516 55.5 130 56.6473 130 56.0175V35.8537L98.5484 24.7Z" fill="#2A75E6"/>
<path d="M0 42.3004V49.0866L2.09677 57.7004L14.6774 64.3004L33.5484 53.3004L52.4194 57.7004L54.5161 64.3004L46.129 70.9004L41.9355 79.7004L46.129 86.3004L69.1936 70.9004L81.7742 79.7004H94.3548L115.323 64.3004L119.516 55.5004C119.516 55.5004 130 56.6477 130 56.018V42.3004H0Z" fill="#F9D549"/>
</svg>
