<svg width="91" height="64" viewBox="0 0 91 64" fill="none" xmlns="http://www.w3.org/2000/svg">
<path d="M88.2656 0.718754H2.73438C1.74199 0.718754 0.9375 1.5145 0.9375 2.4961V61.5039C0.9375 62.4855 1.74199 63.2812 2.73438 63.2812H88.2656C89.258 63.2812 90.0625 62.4855 90.0625 61.5039V2.4961C90.0625 1.5145 89.258 0.718754 88.2656 0.718754Z" fill="#2A75E6"/>
<path d="M0.9375 32H90.0625V61.5039C90.0625 61.9753 89.8732 62.4274 89.5362 62.7607C89.1992 63.094 88.7422 63.2812 88.2656 63.2812H2.73437C2.25781 63.2812 1.80077 63.094 1.46379 62.7607C1.12681 62.4274 0.9375 61.9753 0.9375 61.5039V32Z" fill="#F9D549"/>
</svg>
