<svg width="18" height="18" viewBox="0 0 18 18" fill="none" xmlns="http://www.w3.org/2000/svg">
<path fill-rule="evenodd" clip-rule="evenodd" d="M4.10992 2.55496C4.10992 3.68988 3.18988 4.60992 2.05496 4.60992C0.920036 4.60992 0 3.68988 0 2.55496C0 1.42004 0.920036 0.5 2.05496 0.5C3.18988 0.5 4.10992 1.42004 4.10992 2.55496ZM6.05033 17.5678L6.05033 6.16694L9.44834 6.16694V7.72601H9.49624C9.96865 6.83095 11.1239 5.88518 12.8473 5.88518C16.4369 5.88518 17.0981 8.24538 17.0981 11.3165V17.5688H13.5564V12.0238C13.5564 10.7023 13.5338 9.00143 11.7146 9.00143C9.87004 9.00143 9.59016 10.4422 9.59016 11.9298V17.5678H6.05033ZM3.82726 6.16694H0.281799L0.281799 17.5678H3.82726L3.82726 6.16694Z" fill="#61DAFB"/>
</svg>
