<svg width="19" height="18" viewBox="0 0 19 18" fill="none" xmlns="http://www.w3.org/2000/svg">
<path fill-rule="evenodd" clip-rule="evenodd" d="M9.71593 0.46582C4.88136 0.46582 0.965576 4.3816 0.965576 9.21617C0.965576 13.0882 3.47036 16.3586 6.94863 17.5181C7.38615 17.5946 7.55022 17.3321 7.55022 17.1024C7.55022 16.8946 7.53928 16.2055 7.53928 15.4727C5.34075 15.8774 4.77198 14.9367 4.59697 14.4445C4.49853 14.1929 4.07195 13.4163 3.70006 13.2085C3.3938 13.0445 2.95628 12.6397 3.68912 12.6288C4.37821 12.6179 4.87042 13.2632 5.03449 13.5257C5.82202 14.8492 7.07988 14.4773 7.58303 14.2476C7.6596 13.6789 7.88929 13.296 8.14086 13.0773C6.19391 12.8585 4.15945 12.1038 4.15945 8.75678C4.15945 7.80518 4.49853 7.01765 5.05637 6.40512C4.96886 6.18636 4.6626 5.28945 5.14387 4.08628C5.14387 4.08628 5.87671 3.85658 7.55022 4.98319C8.25024 4.78631 8.99402 4.68787 9.7378 4.68787C10.4816 4.68787 11.2254 4.78631 11.9254 4.98319C13.5989 3.84564 14.3317 4.08628 14.3317 4.08628C14.813 5.28945 14.5067 6.18636 14.4192 6.40512C14.9771 7.01765 15.3162 7.79424 15.3162 8.75678C15.3162 12.1147 13.2708 12.8585 11.3238 13.0773C11.641 13.3507 11.9145 13.8757 11.9145 14.6961C11.9145 15.8664 11.9035 16.8071 11.9035 17.1024C11.9035 17.3321 12.0676 17.6056 12.5051 17.5181C14.2422 16.9316 15.7516 15.8152 16.821 14.3259C17.8903 12.8367 18.4658 11.0496 18.4663 9.21617C18.4663 4.3816 14.5505 0.46582 9.71593 0.46582Z" fill="white"/>
</svg>
