<svg width="37" height="37" viewBox="0 0 37 37" fill="none" xmlns="http://www.w3.org/2000/svg">
<path fill-rule="evenodd" clip-rule="evenodd" d="M26.659 22.3768C26.21 22.1496 24.0085 21.0542 23.5983 20.901C23.1881 20.7492 22.8893 20.6735 22.5854 21.1198C22.283 21.5631 21.4159 22.5653 21.1523 22.8614C20.8872 23.1591 20.6254 23.1934 20.1779 22.9677C19.7305 22.7389 18.2853 22.2581 16.5798 20.7238C15.2529 19.5291 14.3603 18.0589 14.1018 17.6088C13.8433 17.1601 14.0778 16.9195 14.3046 16.6983C14.5085 16.4996 14.7571 16.1793 14.9842 15.9205C15.2112 15.6603 15.2866 15.4742 15.4383 15.1758C15.5915 14.8789 15.5177 14.6181 15.4058 14.3932C15.2955 14.1682 14.4124 11.9609 14.0436 11.0631C13.6852 10.1895 13.314 10.3058 13.0389 10.2889C12.7759 10.2751 12.4766 10.27 12.1773 10.268C11.8779 10.2659 11.3904 10.3739 10.9761 10.8195C10.5603 11.2636 9.39337 12.3375 9.37837 14.5387C9.36338 16.7384 10.9575 18.8753 11.1807 19.1763C11.4039 19.4757 14.3152 24.0126 18.8088 25.9797C19.8791 26.4474 20.7132 26.7284 21.3634 26.9375C22.4375 27.2864 23.4175 27.2449 24.1924 27.1343C25.055 27.0123 26.8576 26.0706 27.2396 25.029C27.6201 23.9874 27.6262 23.0921 27.5156 22.9048C27.405 22.7175 27.1064 22.6041 26.6574 22.3768L26.659 22.3768ZM18.3859 33.4595L18.3799 33.4595C15.703 33.4417 13.0803 32.7077 10.7864 31.3343L10.2444 31.0086L4.577 32.4476L6.12472 26.9691L5.77327 26.404C4.29292 24.0231 3.51965 21.2739 3.54281 18.4742C3.60171 10.2742 10.3506 3.64855 18.5947 3.70472C22.5859 3.73191 26.3277 5.30721 29.1297 8.13701C30.5117 9.52557 31.6034 11.1731 32.3416 12.9842C33.0798 14.7953 33.4498 16.7341 33.4302 18.6884C33.3713 26.8884 26.6224 33.5156 18.3859 33.4595ZM31.291 6.01662C29.6366 4.33656 27.6637 2.99994 25.4865 2.08421C23.3094 1.16848 20.9713 0.691847 18.6077 0.681939C8.69914 0.614427 0.577298 8.58646 0.507056 18.4521C0.484057 21.6057 1.29006 24.6897 2.84539 27.4132L0.231748 36.6686L9.77931 34.245C12.406 35.6925 15.3554 36.4616 18.3577 36.4822L18.3653 36.4822C28.2739 36.5497 36.3957 28.5777 36.466 18.7106C36.4893 16.3594 36.0439 14.0269 35.1557 11.848C34.2674 9.6691 32.9539 7.68709 31.291 6.01662Z" fill="url(#paint0_linear_888_1230)"/>
<defs>
<linearGradient id="paint0_linear_888_1230" x1="33.9614" y1="-1.50125" x2="-2.57696" y2="25.8169" gradientUnits="userSpaceOnUse">
<stop stop-color="#25B43B"/>
<stop offset="1" stop-color="#09DDB7"/>
</linearGradient>
</defs>
</svg>
